<svg width="2885" height="2135" xmlns="http://www.w3.org/2000/svg" xmlns:xlink="http://www.w3.org/1999/xlink" xml:space="preserve" overflow="hidden"><defs><clipPath id="clip0"><rect x="379" y="170" width="2885" height="2135"/></clipPath><clipPath id="clip1"><rect x="379" y="170" width="1230" height="2135"/></clipPath><clipPath id="clip2"><rect x="379" y="170" width="1230" height="2135"/></clipPath><clipPath id="clip3"><rect x="-845" y="-129" width="3302" height="2477"/></clipPath></defs><g clip-path="url(#clip0)" transform="translate(-379 -170)"><g clip-path="url(#clip1)"><g clip-path="url(#clip2)"><g clip-path="url(#clip3)"><path d="M1821.33 2108.85C1807.4 2093.38 1800.44 2067.08 1798.38 2020.4 1797.35 2000.03 1795.54 1984.82 1793.48 1981.46 1791.42 1978.63 1788.84 1969.35 1787.29 1960.84 1783.42 1939.69 1778.78 1840.67 1780.84 1821.33 1783.42 1796.06 1781.87 1793.22 1765.11 1790.9 1710.96 1784.2 1656.81 1753.25 1632.31 1714.83 1607.04 1675.37 1599.3 1592.34 1615.29 1532.52 1638.24 1448.19 1662.22 1418.28 1725.14 1395.07 1752.22 1385.27 1763.05 1378.05 1772.59 1364.64 1779.3 1354.84 1779.81 1352.52 1778.78 1334.47 1778.26 1320.8 1776.72 1314.1 1774.14 1312.55 1768.98 1309.2 1755.57 1309.46 1741.65 1312.81 1731.59 1315.39 1728.24 1314.87 1711.73 1308.94 1701.42 1305.07 1686.46 1297.85 1678.47 1293.21 1653.71 1278 1585.38 1263.82 1535.61 1263.3 1495.64 1262.78 1489.45 1261.49 1488.42 1253.24 1487.9 1249.63 1486.36 1245.76 1485.07 1244.22 1480.17 1239.06 1483 1223.85 1492.03 1207.34 1500.54 1191.35 1509.56 1169.18 1526.58 1120.18 1530.45 1108.84 1535.61 1087.18 1538.19 1072.48 1543.6 1037.92 1544.12 1036.63 1549.79 1036.63 1554.95 1036.63 1574.29 1010.33 1577.13 999.5 1578.42 994.085 1576.61 989.959 1568.36 979.128 1547.21 951.021 1535.35 924.46 1527.87 888.874 1517.3 839.621 1530.97 765.355 1552.37 754.267 1562.17 749.109 1587.44 749.367 1619.93 754.525 1635.4 756.845 1646.75 757.619 1648.04 756.33 1652.94 751.43 1653.71 681.032 1649.07 648.54 1641.85 596.451 1641.34 581.237 1646.49 570.148 1650.88 560.349 1650.88 560.349 1642.88 544.619 1619.42 498.203 1607.81 462.101 1603.94 423.163 1602.4 408.207 1600.08 384.225 1598.53 370.042 1595.44 340.129 1589.5 313.311 1578.16 277.467 1573.26 262.511 1570.42 248.844 1571.2 244.202 1571.97 238.787 1569.13 229.761 1561.91 214.547 1555.21 200.106 1551.34 187.729 1550.57 177.672 1548.5 157.3 1552.89 151.111 1570.94 146.985 1595.44 141.828 1640.56 139.249 1678.47 140.796 1712.77 142.602 1716.38 143.117 1721.79 148.533 1726.69 153.432 1727.72 157.3 1727.72 170.709 1727.46 205.006 1707.87 226.667 1676.66 226.925 1669.44 227.183 1657.84 230.019 1648.04 234.145L1631.28 241.107 1626.9 264.316C1619.42 301.965 1618.13 332.909 1623.03 359.727 1628.44 388.093 1665.06 531.726 1669.96 543.33 1672.54 549.777 1674.86 551.84 1679.76 551.84 1688.27 551.84 1694.2 558.286 1694.2 567.312 1694.2 571.18 1691.88 590.004 1689.04 609.086 1682.85 650.861 1681.31 765.871 1687.24 770.255 1688.78 771.544 1698.58 775.928 1708.38 780.054 1718.44 784.179 1733.91 792.689 1742.68 798.878 1751.7 805.067 1760.21 809.708 1761.24 809.193 1763.57 808.419 1792.19 764.581 1815.14 726.159 1842.73 680.774 1856.66 641.32 1856.66 609.344 1856.66 585.105 1860.78 571.18 1871.1 562.154L1879.86 554.418 1874.71 524.248C1869.29 492.53 1866.2 460.812 1861.81 383.709 1859.49 343.739 1857.95 332.909 1848.92 297.323 1842.99 274.888 1838.86 254.259 1839.64 251.422 1840.41 248.586 1838.61 238.529 1835.77 229.503 1830.1 211.195 1828.81 181.54 1833.19 173.288 1835.51 169.162 1839.64 167.873 1854.59 166.583 1864.91 165.81 1895.59 163.231 1922.41 160.91 1977.34 156.269 2060.89 157.042 2075.33 162.457 2085.64 166.325 2088.74 171.741 2088.74 186.955 2088.74 209.132 2072.49 227.698 2050.83 231.051 2044.13 232.082 2035.62 235.176 2032.01 237.755 2026.33 242.397 2023.24 242.655 2005.19 241.107 1986.88 239.56 1980.18 240.334 1943.04 249.101L1901.27 258.9 1891.47 289.587C1877.29 333.425 1876.77 354.828 1887.6 431.415 1892.24 463.906 1897.14 504.392 1898.95 521.411L1901.78 552.355 1910.81 555.45C1926.54 560.607 1924.22 569.375 1887.86 643.383 1870.58 678.969 1848.66 726.933 1839.38 750.399 1830.35 773.865 1816.17 805.325 1808.18 820.539L1793.74 848.389 1800.44 855.351C1809.47 864.635 1817.2 882.428 1821.33 902.799 1823.13 911.567 1825.97 919.303 1827.52 919.819 1832.16 921.366 1841.7 892.742 1843.51 872.371 1845.31 851.483 1851.24 840.911 1856.14 849.936 1861.81 861.024 1861.81 881.396 1856.66 911.825 1853.56 928.586 1849.95 950.247 1848.66 959.788 1847.12 969.587 1843.25 986.864 1839.64 998.469 1836.03 1010.33 1832.42 1021.93 1831.64 1024.51 1830.87 1027.09 1832.16 1032.77 1834.48 1037.41 1836.54 1042.05 1840.41 1056.23 1842.47 1068.87 1844.79 1081.76 1851.24 1106.52 1857.17 1124.31 1863.1 1142.1 1870.84 1168.66 1874.71 1183.36 1880.64 1207.34 1882.19 1210.95 1888.89 1214.56 1898.95 1219.98 1900.49 1230.81 1892.76 1239.06 1886.57 1245.51 1886.57 1249.38 1893.02 1270.52 1895.85 1279.8 1895.85 1282.64 1892.24 1290.38 1886.31 1302.24 1871.1 1307.4 1839.64 1307.4 1812.3 1307.4 1808.69 1309.46 1811.27 1324.16 1812.56 1330.6 1817.46 1337.57 1827.52 1347.62 1845.57 1365.42 1849.95 1367.74 1877.29 1373.15 1905.14 1378.83 1910.04 1380.89 1945.11 1402.03 1981.46 1423.95 1993.84 1435.3 2004.16 1456.19 2014.47 1477.33 2015.25 1498.73 2006.74 1515.5 1999.77 1529.16 1999.52 1541.8 2006.22 1554.95 2012.93 1568.1 2018.86 1593.37 2017.57 1603.94 2017.05 1608.33 2017.82 1614.52 2019.37 1617.35 2020.92 1620.45 2022.21 1630.51 2021.95 1640.05 2021.69 1656.03 2022.47 1658.61 2030.72 1670.99 2047.22 1695.75 2040 1712.77 2007.51 1724.89 1985.59 1733.14 1977.85 1741.13 1977.85 1755.57L1977.85 1767.18 2036.65 1826.23C2068.88 1858.72 2107.56 1895.34 2123.03 1907.46 2138.25 1919.83 2150.63 1931.7 2150.63 1934.02 2150.63 1941.24 2218.19 1988.43 2245.78 2000.03 2284.98 2017.05 2319.02 2024.01 2374.97 2026.59 2418.04 2028.4 2425.26 2030.46 2419.84 2039.23 2415.97 2045.42 2394.83 2046.19 2357.18 2041.29 2281.11 2031.23 2230.82 2010.35 2177.7 1965.99 2164.81 1955.42 2151.66 1945.62 2148.05 1944.07 2144.44 1942.53 2137.48 1939.43 2132.58 1937.11 2120.2 1931.18 2059.08 1869.29 2011.64 1814.88 1959.55 1755.06 1957.48 1754.28 1914.42 1771.3 1888.12 1781.87 1857.95 1787.81 1814.62 1791.16 1797.86 1792.45 1791.42 1793.99 1790.38 1796.83 1787.81 1803.54 1794.51 1923.96 1798.64 1944.33 1800.7 1954.9 1802.25 1968.83 1801.99 1975.28 1801.21 1996.42 1812.82 2062.95 1819.78 2077.13 1821.84 2081.26 1828.29 2089.25 1833.96 2094.41 1842.73 2102.66 1843.76 2104.73 1841.18 2109.11 1837.57 2116.33 1828.03 2116.07 1821.33 2108.85ZM1714.31 1255.31C1716.12 1251.44 1719.99 1237 1722.82 1223.07 1725.92 1209.15 1730.04 1193.16 1732.62 1187.49 1735.97 1179.49 1736.49 1174.34 1734.94 1164.28 1733.65 1157.32 1732.88 1141.07 1733.4 1128.18 1734.17 1090.53 1733.4 1081.76 1727.98 1075.57 1725.14 1072.22 1722.31 1068.35 1721.79 1066.8 1721.28 1065 1719.73 1064.48 1718.7 1065.77 1717.41 1066.8 1718.18 1070.41 1719.99 1074.02 1724.37 1082.28 1719.73 1088.21 1708.64 1088.21 1702.19 1088.21 1697.81 1085.63 1688.01 1075.06 1673.05 1059.07 1658.87 1052.88 1627.41 1047.98 1592.6 1042.82 1591.05 1042.82 1591.05 1051.59 1591.05 1055.46 1587.18 1064.23 1581.77 1071.45 1569.91 1087.95 1559.85 1107.8 1551.34 1131.53 1547.73 1142.1 1538.19 1166.86 1530.19 1186.71 1521.94 1206.83 1516.53 1223.59 1517.82 1224.88 1521.68 1228.49 1583.06 1242.41 1614.26 1246.8 1630.51 1249.12 1650.88 1252.73 1659.39 1255.05 1675.63 1259.17 1700.65 1263.3 1707.09 1262.53 1709.16 1262.27 1712.51 1259.17 1714.31 1255.31Z" transform="matrix(1 0 0 -1.00002 -844.131 2347.16)"/></g></g></g><path d="M1604.25 2037.33C1613.42 2037.33 1621.8 2038.99 1629.4 2042.29 1636.99 2045.6 1642.74 2049.81 1646.63 2054.94 1650.53 2060.07 1653.24 2065.89 1654.77 2072.4 1656.3 2078.91 1657.06 2088.23 1657.06 2100.36L1657.06 2198.01 1615.49 2198.01 1615.49 2117.82C1615.49 2100.85 1614.6 2089.88 1612.83 2084.9 1611.05 2079.92 1608.17 2076.05 1604.17 2073.29 1600.18 2070.52 1595.37 2069.14 1589.75 2069.14 1582.55 2069.14 1576.09 2071.12 1570.37 2075.06 1564.65 2079.01 1560.73 2084.23 1558.6 2090.74 1556.48 2097.25 1555.42 2109.29 1555.42 2126.84L1555.42 2198.01 1513.85 2198.01 1513.85 2040.89 1552.46 2040.89 1552.46 2063.97C1566.17 2046.21 1583.44 2037.33 1604.25 2037.33ZM1381.51 2031.71 1352.22 2112.2 1411.4 2112.2ZM1742.79 1985.4 1742.79 2040.89 1771.2 2040.89 1771.2 2074.03 1742.79 2074.03 1742.79 2137.35C1742.79 2150.17 1743.06 2157.64 1743.6 2159.76 1744.15 2161.88 1745.38 2163.63 1747.3 2165.01 1749.23 2166.4 1751.57 2167.09 1754.33 2167.09 1758.18 2167.09 1763.75 2165.75 1771.05 2163.09L1774.6 2195.34C1764.93 2199.49 1753.99 2201.56 1741.76 2201.56 1734.26 2201.56 1727.5 2200.3 1721.49 2197.79 1715.47 2195.27 1711.06 2192.02 1708.24 2188.02 1705.43 2184.03 1703.49 2178.63 1702.4 2171.82 1701.51 2166.99 1701.07 2157.22 1701.07 2142.53L1701.07 2074.03 1681.98 2074.03 1681.98 2040.89 1701.07 2040.89 1701.07 2009.67ZM1358.88 1981.11 1405.18 1981.11 1492.03 2198.01 1444.39 2198.01 1425.45 2148.74 1338.76 2148.74 1320.85 2198.01 1274.4 2198.01Z" fill="#ED7D31" fill-rule="evenodd"/><path d="M1604.31 2038.33 1596.82 2038.81 1589.62 2040.03 1582.74 2042.05 1576.21 2044.93 1570.01 2048.55 1564.15 2053.11 1558.6 2058.41 1553.28 2064.66C1553.01 2064.97 1552.57 2065.09 1552.18 2064.95 1551.78 2064.8 1551.52 2064.43 1551.52 2064.01L1551.52 2041.95 1514.9 2041.95 1514.9 2197.01 1554.46 2197.01 1554.46 2126.87 1554.52 2120.55 1554.65 2114.71 1554.9 2109.37 1555.28 2104.59 1555.72 2100.23 1556.29 2096.51 1556.93 2093.18 1557.73 2090.37 1559.66 2085.75C1559.68 2085.7 1559.71 2085.65 1559.73 2085.61L1562.29 2081.42C1562.33 2081.37 1562.36 2081.32 1562.4 2081.28L1565.72 2077.59C1565.75 2077.55 1565.79 2077.51 1565.83 2077.48L1569.77 2074.29C1569.81 2074.26 1569.85 2074.23 1569.9 2074.2L1574.33 2071.64C1574.38 2071.62 1574.42 2071.6 1574.46 2071.58L1579.15 2069.7C1579.2 2069.68 1579.26 2069.67 1579.31 2069.65L1584.45 2068.57 1589.83 2068.2 1593.9 2068.45C1593.95 2068.45 1594 2068.46 1594.05 2068.47L1597.92 2069.32 1601.42 2070.57C1601.48 2070.59 1601.53 2070.61 1601.59 2070.64L1604.71 2072.46C1604.75 2072.48 1604.8 2072.51 1604.83 2072.54L1607.65 2074.79C1607.69 2074.83 1607.74 2074.87 1607.78 2074.92L1610.15 2077.67C1610.19 2077.7 1610.22 2077.74 1610.24 2077.79L1612.18 2080.85C1612.21 2080.89 1612.24 2080.94 1612.26 2080.99L1613.79 2084.66 1614.44 2086.87 1615.01 2089.63 1615.46 2092.97 1615.83 2096.81 1616.15 2101.22 1616.33 2106.23 1616.46 2111.75 1616.52 2117.82 1616.52 2197.01 1656.08 2197.01 1656.08 2100.4 1655.96 2091.88 1655.53 2084.43 1654.79 2078 1653.81 2072.72 1652.47 2068.06 1650.76 2063.66 1648.57 2059.51 1645.9 2055.61 1642.7 2051.97 1638.92 2048.79 1634.33 2045.84 1629.05 2043.26 1623.35 2041.1 1617.32 2039.62 1610.97 2038.69ZM1604.18 2036.34 1611.08 2036.7 1617.6 2037.64 1623.82 2039.16 1629.75 2041.38 1635.21 2044.05 1640 2047.1 1644.04 2050.49C1644.08 2050.52 1644.11 2050.56 1644.15 2050.6L1647.4 2054.28 1650.22 2058.38 1652.53 2062.73 1654.33 2067.33 1655.73 2072.17 1656.76 2077.64 1657.52 2084.21 1657.96 2091.76 1658.08 2100.37 1658.08 2198.01C1658.08 2198.56 1657.64 2199.01 1657.08 2199.01L1615.52 2199.01C1614.97 2199.01 1614.52 2198.56 1614.52 2198.01L1614.52 2117.82 1614.46 2111.77 1614.34 2106.28 1614.15 2101.29 1613.84 2096.95 1613.46 2093.17 1613.03 2089.89 1612.48 2087.27 1611.88 2085.23 1610.45 2081.85 1608.59 2078.92 1606.33 2076.29 1603.64 2074.15 1600.66 2072.42 1597.25 2071.2 1593.7 2070.44 1589.71 2070.19 1584.59 2070.57 1579.82 2071.59 1575.27 2073.41 1570.97 2075.9 1567.15 2078.98 1563.95 2082.55 1561.48 2086.59 1559.57 2091.14 1558.86 2093.71 1558.25 2096.88 1557.7 2100.53 1557.27 2104.8 1556.89 2109.52 1556.65 2114.8 1556.52 2120.59 1556.46 2126.89 1556.46 2198.01C1556.46 2198.56 1556.01 2199.01 1555.46 2199.01L1513.9 2199.01C1513.35 2199.01 1512.9 2198.56 1512.9 2198.01L1512.9 2040.95C1512.9 2040.39 1513.35 2039.95 1513.9 2039.95L1552.52 2039.95C1553.07 2039.95 1553.52 2040.39 1553.52 2040.95L1553.52 2061.29 1557.07 2057.11 1562.77 2051.66 1568.78 2046.97 1575.21 2043.21 1581.93 2040.22 1589.05 2038.11 1596.48 2036.83ZM1381.52 2034.61 1353.7 2111.26 1409.96 2111.2ZM1381.51 2030.71C1381.93 2030.71 1382.3 2030.97 1382.45 2031.36L1412.34 2111.85C1412.45 2112.16 1412.41 2112.5 1412.22 2112.77 1412.03 2113.04 1411.73 2113.2 1411.4 2113.2L1352.27 2113.26C1351.95 2113.26 1351.64 2113.1 1351.45 2112.83 1351.27 2112.56 1351.22 2112.22 1351.33 2111.92L1380.57 2031.37C1380.72 2030.98 1381.09 2030.71 1381.51 2030.71ZM1741.79 1987.14 1702.07 2010.24 1702.08 2040.94C1702.09 2041.5 1701.64 2041.95 1701.08 2041.95L1683.02 2041.95 1683.02 2073.07 1701.08 2073.07C1701.64 2073.07 1702.08 2073.52 1702.08 2074.07L1702.08 2142.57 1702.08 2147.81 1702.15 2152.6 1702.27 2156.98 1702.4 2160.83 1702.58 2164.24 1702.83 2167.13 1703.14 2169.61 1703.44 2171.63 1704.35 2176.4 1705.63 2180.62 1707.19 2184.31 1709.09 2187.49 1711.42 2190.24 1714.25 2192.66 1717.77 2194.92 1721.85 2196.88 1726.38 2198.47 1731.22 2199.64 1736.32 2200.32 1741.73 2200.57 1750.57 2200.2 1758.91 2199.04 1766.81 2197.13 1773.57 2194.71 1770.23 2164.48 1766.17 2165.85 1761.59 2167.11 1757.66 2167.88 1754.41 2168.13C1754.34 2168.13 1754.27 2168.13 1754.2 2168.12L1750.39 2167.62C1750.28 2167.61 1750.18 2167.58 1750.08 2167.53L1746.89 2165.97C1746.8 2165.92 1746.71 2165.85 1746.63 2165.78L1744.25 2163.4C1744.17 2163.32 1744.1 2163.22 1744.05 2163.11L1742.74 2160.24C1742.7 2160.16 1742.68 2160.08 1742.66 2159.99L1742.47 2158.88 1742.27 2157.26 1742.15 2155.24 1742.02 2152.65 1741.96 2149.59 1741.9 2146.02 1741.83 2141.95 1741.83 2137.38 1741.83 2074.07C1741.83 2073.52 1742.28 2073.07 1742.83 2073.07L1770.21 2073.07 1770.21 2041.95 1742.83 2041.95C1742.28 2041.95 1741.84 2041.5 1741.83 2040.95ZM1743.29 1984.54C1743.6 1984.72 1743.79 1985.05 1743.79 1985.4L1743.83 2039.95 1771.21 2039.95C1771.76 2039.95 1772.21 2040.39 1772.21 2040.95L1772.21 2074.07C1772.21 2074.62 1771.76 2075.07 1771.21 2075.07L1743.83 2075.07 1743.83 2137.38 1743.83 2141.95 1743.9 2145.99 1743.96 2149.55 1744.02 2152.61 1744.15 2155.15 1744.27 2157.13 1744.45 2158.64 1744.61 2159.52 1745.79 2162.12 1747.92 2164.25 1750.82 2165.66 1754.36 2166.13 1757.51 2165.89 1761.2 2165.15 1765.63 2163.92 1770.77 2162.19C1771.05 2162.09 1771.37 2162.13 1771.62 2162.29 1771.88 2162.45 1772.05 2162.72 1772.08 2163.02L1775.64 2195.27C1775.69 2195.73 1775.42 2196.17 1774.98 2196.32L1767.48 2199.01 1759.38 2200.98 1750.85 2202.19 1741.81 2202.57 1736.23 2202.32 1730.95 2201.62 1725.91 2200.42 1721.19 2198.76 1716.9 2196.72 1713.17 2194.35 1710.06 2191.71C1710.02 2191.67 1709.98 2191.63 1709.95 2191.59L1707.51 2188.72C1707.47 2188.67 1707.44 2188.63 1707.41 2188.58L1705.48 2185.33 1703.79 2181.4 1702.44 2176.99 1701.48 2172.01 1701.16 2169.91 1700.84 2167.38 1700.59 2164.4 1700.4 2160.94 1700.27 2157.04 1700.15 2152.66 1700.08 2147.83 1700.08 2142.57 1700.08 2075.07 1682.02 2075.07C1681.47 2075.07 1681.02 2074.62 1681.02 2074.07L1681.02 2040.95C1681.02 2040.39 1681.47 2039.95 1682.02 2039.95L1700.08 2039.95 1700.07 2009.67C1700.07 2009.31 1700.26 2008.98 1700.57 2008.8L1742.29 1984.54C1742.6 1984.36 1742.98 1984.36 1743.29 1984.54ZM1359.56 1982.11 1275.86 2197.01 1320.2 2197.01 1337.83 2148.42C1337.98 2148.02 1338.35 2147.76 1338.77 2147.76L1425.46 2147.76C1425.87 2147.76 1426.24 2148.01 1426.39 2148.4L1445.08 2197.01 1490.61 2197.01 1404.53 1982.13ZM1358.88 1980.11 1405.21 1980.13C1405.62 1980.13 1405.99 1980.38 1406.14 1980.76L1493.01 2197.64C1493.14 2197.94 1493.1 2198.29 1492.91 2198.57 1492.73 2198.84 1492.42 2199.01 1492.08 2199.01L1444.4 2199.01C1443.98 2199.01 1443.61 2198.75 1443.46 2198.37L1424.77 2149.76 1339.47 2149.76 1321.84 2198.35C1321.69 2198.74 1321.32 2199.01 1320.9 2199.01L1274.4 2199.01C1274.07 2199.01 1273.76 2198.84 1273.57 2198.57 1273.39 2198.3 1273.35 2197.95 1273.47 2197.64L1357.94 1980.75C1358.09 1980.37 1358.46 1980.11 1358.88 1980.11Z" fill="#ED7D31" fill-rule="evenodd"/><path d="M1595.26 2028.35C1604.43 2028.35 1612.81 2030 1620.41 2033.3 1628 2036.61 1633.75 2040.82 1637.65 2045.95 1641.54 2051.08 1644.25 2056.9 1645.78 2063.41 1647.31 2069.92 1648.08 2079.24 1648.08 2091.37L1648.08 2189.02 1606.5 2189.02 1606.5 2108.83C1606.5 2091.86 1605.61 2080.89 1603.84 2075.91 1602.06 2070.93 1599.18 2067.06 1595.18 2064.3 1591.19 2061.54 1586.38 2060.15 1580.76 2060.15 1573.56 2060.15 1567.1 2062.13 1561.38 2066.07 1555.66 2070.02 1551.74 2075.25 1549.62 2081.75 1547.49 2088.26 1546.43 2100.3 1546.43 2117.85L1546.43 2189.02 1504.86 2189.02 1504.86 2031.9 1543.48 2031.9 1543.48 2054.98C1557.19 2037.22 1574.45 2028.35 1595.26 2028.35ZM1372.52 2022.72 1343.23 2103.21 1402.41 2103.21ZM1733.8 1976.42 1733.8 2031.9 1762.21 2031.9 1762.21 2065.04 1733.8 2065.04 1733.8 2128.36C1733.8 2141.18 1734.07 2148.65 1734.62 2150.77 1735.16 2152.89 1736.39 2154.64 1738.31 2156.03 1740.24 2157.41 1742.58 2158.1 1745.34 2158.1 1749.19 2158.1 1754.76 2156.77 1762.06 2154.1L1765.61 2186.35C1755.94 2190.5 1745 2192.57 1732.77 2192.57 1725.27 2192.57 1718.51 2191.31 1712.5 2188.8 1706.48 2186.28 1702.07 2183.03 1699.26 2179.03 1696.44 2175.04 1694.5 2169.64 1693.41 2162.83 1692.52 2158 1692.08 2148.23 1692.08 2133.54L1692.08 2065.04 1672.99 2065.04 1672.99 2031.9 1692.08 2031.9 1692.08 2000.68ZM1349.89 1972.12 1396.2 1972.12 1483.04 2189.02 1435.4 2189.02 1416.46 2139.75 1329.77 2139.75 1311.86 2189.02 1265.41 2189.02Z" stroke="#ED7D31" stroke-width="2" stroke-linejoin="round" stroke-miterlimit="10" fill="#FFFFFF" fill-rule="evenodd"/><text fill="#000000" fill-opacity="0" font-family="Arial,Arial_MSFontService,sans-serif" font-size="220.444" x="1265.41" y="2165.01">Ant</text><path d="M2329.84 2070.18C2319.68 2070.18 2311.25 2074.1 2304.54 2081.94 2297.83 2089.78 2294.48 2101.4 2294.48 2116.78 2294.48 2134.44 2297.98 2147.48 2304.98 2155.92 2311.98 2164.35 2320.52 2168.57 2330.58 2168.57 2340.24 2168.57 2348.28 2164.69 2354.69 2156.95 2361.1 2149.21 2364.31 2136.51 2364.31 2118.85 2364.31 2102.38 2361.01 2090.15 2354.4 2082.16 2347.79 2074.17 2339.6 2070.18 2329.84 2070.18ZM3023.97 2069.14C3014.89 2069.14 3007.4 2072.45 3001.48 2079.06 2995.56 2085.66 2992.65 2094.64 2992.75 2105.98L3054.89 2105.98C3054.59 2093.95 3051.48 2084.8 3045.57 2078.54 3039.65 2072.28 3032.45 2069.14 3023.97 2069.14ZM2501.97 2069.14C2492.89 2069.14 2485.4 2072.45 2479.48 2079.06 2473.56 2085.66 2470.65 2094.64 2470.75 2105.98L2532.89 2105.98C2532.59 2093.95 2529.48 2084.8 2523.57 2078.54 2517.65 2072.28 2510.45 2069.14 2501.97 2069.14ZM2068.93 2040.89 2119.67 2040.89 2147.49 2084.09 2176.78 2040.89 2225.6 2040.89 2172.34 2115.3 2230.49 2198.01 2179.44 2198.01 2147.49 2149.33 2115.23 2198.01 2066.56 2198.01 2123.22 2117.08ZM3187.79 2037.33C3209.29 2037.33 3225.27 2040.84 3235.72 2047.84 3246.18 2054.84 3253.38 2065.2 3257.32 2078.91L3218.12 2086.16C3216.44 2080.04 3213.26 2075.36 3208.57 2072.1 3203.89 2068.85 3197.21 2067.22 3188.53 2067.22 3177.58 2067.22 3169.74 2068.75 3165 2071.81 3161.85 2073.98 3160.27 2076.79 3160.27 2080.24 3160.27 2083.2 3161.65 2085.71 3164.41 2087.79 3168.16 2090.55 3181.11 2094.44 3203.25 2099.47 3225.39 2104.5 3240.85 2110.67 3249.63 2117.97 3258.31 2125.36 3262.65 2135.67 3262.65 2148.89 3262.65 2163.29 3256.63 2175.67 3244.6 2186.02 3232.57 2196.38 3214.76 2201.56 3191.19 2201.56 3169.79 2201.56 3152.85 2197.22 3140.37 2188.54 3127.89 2179.86 3119.73 2168.07 3115.88 2153.18L3157.61 2146.82C3159.38 2154.91 3162.98 2161.04 3168.41 2165.24 3173.83 2169.43 3181.43 2171.52 3191.19 2171.52 3201.94 2171.52 3210.03 2169.55 3215.45 2165.61 3219.1 2162.84 3220.93 2159.15 3220.93 2154.51 3220.93 2151.35 3219.94 2148.74 3217.97 2146.67 3215.9 2144.7 3211.26 2142.87 3204.06 2141.2 3170.53 2133.8 3149.27 2127.04 3140.3 2120.93 3127.87 2112.44 3121.65 2100.66 3121.65 2085.57 3121.65 2071.95 3127.03 2060.51 3137.78 2051.24 3148.53 2041.97 3165.2 2037.33 3187.79 2037.33ZM3021.45 2037.33C3044.83 2037.33 3063.27 2045.05 3076.78 2060.49 3090.3 2075.92 3096.76 2099.57 3096.17 2131.43L2992.01 2131.43C2992.3 2143.76 2995.66 2153.35 3002.07 2160.21 3008.48 2167.06 3016.47 2170.49 3026.04 2170.49 3032.55 2170.49 3038.02 2168.71 3042.46 2165.16 3046.9 2161.61 3050.25 2155.89 3052.52 2148L3093.95 2154.95C3088.62 2170.14 3080.21 2181.71 3068.72 2189.65 3057.23 2197.59 3042.85 2201.56 3025.59 2201.56 2998.27 2201.56 2978.05 2192.63 2964.93 2174.78 2954.58 2160.48 2949.4 2142.43 2949.4 2120.63 2949.4 2094.59 2956.21 2074.2 2969.82 2059.45 2983.43 2044.71 3000.64 2037.33 3021.45 2037.33ZM2850.79 2037.33C2872.29 2037.33 2888.27 2040.84 2898.72 2047.84 2909.18 2054.84 2916.38 2065.2 2920.32 2078.91L2881.12 2086.16C2879.44 2080.04 2876.26 2075.36 2871.57 2072.1 2866.89 2068.85 2860.21 2067.22 2851.53 2067.22 2840.58 2067.22 2832.74 2068.75 2828 2071.81 2824.85 2073.98 2823.27 2076.79 2823.27 2080.24 2823.27 2083.2 2824.65 2085.71 2827.41 2087.79 2831.16 2090.55 2844.11 2094.44 2866.25 2099.47 2888.39 2104.5 2903.85 2110.67 2912.63 2117.97 2921.31 2125.36 2925.65 2135.67 2925.65 2148.89 2925.65 2163.29 2919.63 2175.67 2907.6 2186.02 2895.57 2196.38 2877.76 2201.56 2854.19 2201.56 2832.79 2201.56 2815.85 2197.22 2803.37 2188.54 2790.89 2179.86 2782.73 2168.07 2778.88 2153.18L2820.61 2146.82C2822.38 2154.91 2825.98 2161.04 2831.41 2165.24 2836.83 2169.43 2844.43 2171.52 2854.19 2171.52 2864.94 2171.52 2873.03 2169.55 2878.45 2165.61 2882.1 2162.84 2883.93 2159.15 2883.93 2154.51 2883.93 2151.35 2882.94 2148.74 2880.97 2146.67 2878.9 2144.7 2874.26 2142.87 2867.06 2141.2 2833.53 2133.8 2812.27 2127.04 2803.3 2120.93 2790.87 2112.44 2784.65 2100.66 2784.65 2085.57 2784.65 2071.95 2790.03 2060.51 2800.78 2051.24 2811.53 2041.97 2828.2 2037.33 2850.79 2037.33ZM2698.63 2037.33C2707.81 2037.33 2716.19 2038.99 2723.78 2042.29 2731.38 2045.6 2737.12 2049.81 2741.02 2054.94 2744.92 2060.07 2747.63 2065.89 2749.16 2072.4 2750.69 2078.91 2751.45 2088.23 2751.45 2100.36L2751.45 2198.01 2709.88 2198.01 2709.88 2117.82C2709.88 2100.85 2708.99 2089.88 2707.21 2084.9 2705.44 2079.92 2702.55 2076.05 2698.56 2073.29 2694.56 2070.52 2689.76 2069.14 2684.13 2069.14 2676.93 2069.14 2670.47 2071.12 2664.75 2075.06 2659.03 2079.01 2655.11 2084.23 2652.99 2090.74 2650.87 2097.25 2649.81 2109.29 2649.81 2126.84L2649.81 2198.01 2608.24 2198.01 2608.24 2040.89 2646.85 2040.89 2646.85 2063.97C2660.56 2046.21 2677.82 2037.33 2698.63 2037.33ZM2499.45 2037.33C2522.83 2037.33 2541.27 2045.05 2554.78 2060.49 2568.3 2075.92 2574.76 2099.57 2574.17 2131.43L2470.01 2131.43C2470.3 2143.76 2473.66 2153.35 2480.07 2160.21 2486.48 2167.06 2494.47 2170.49 2504.04 2170.49 2510.55 2170.49 2516.02 2168.71 2520.46 2165.16 2524.9 2161.61 2528.25 2155.89 2530.52 2148L2571.95 2154.95C2566.62 2170.14 2558.21 2181.71 2546.72 2189.65 2535.23 2197.59 2520.85 2201.56 2503.59 2201.56 2476.27 2201.56 2456.05 2192.63 2442.93 2174.78 2432.58 2160.48 2427.4 2142.43 2427.4 2120.63 2427.4 2094.59 2434.21 2074.2 2447.82 2059.45 2461.43 2044.71 2478.64 2037.33 2499.45 2037.33ZM2341.08 2037.33C2359.33 2037.33 2374.81 2044.49 2387.54 2058.79 2400.26 2073.09 2406.62 2093.01 2406.62 2118.56 2406.62 2144.8 2400.21 2165.19 2387.39 2179.74 2374.57 2194.28 2359.03 2201.56 2340.79 2201.56 2332.11 2201.56 2324.24 2199.83 2317.19 2196.38 2310.14 2192.93 2302.71 2187.01 2294.92 2178.63L2294.92 2257.78 2253.35 2257.78 2253.35 2040.89 2292.11 2040.89 2292.11 2063.97C2297.14 2056.07 2303.95 2049.66 2312.53 2044.73 2321.11 2039.8 2330.63 2037.33 2341.08 2037.33ZM1884.83 1981.11 2045.65 1981.11 2045.65 2017.81 1928.62 2017.81 1928.62 2065.89 2037.51 2065.89 2037.51 2102.43 1928.62 2102.43 1928.62 2161.46 2049.79 2161.46 2049.79 2198.01 1884.83 2198.01Z" fill="#ED7D31" fill-rule="evenodd"/><path d="M2329.84 2071.19 2322.81 2071.93 2316.33 2074.05 2310.52 2077.61 2305.37 2082.59 2301.05 2089.04 2298 2096.85 2296.14 2106.2 2295.53 2116.88 2295.72 2123.17 2296.22 2129.11 2297.02 2134.55 2298.13 2139.61 2299.61 2144.2 2301.39 2148.37 2303.47 2152.08 2305.84 2155.36 2308.46 2158.21 2311.27 2160.77 2314.12 2162.82 2317.16 2164.58 2320.3 2165.9 2323.61 2166.79 2327.08 2167.4 2330.57 2167.57 2337.32 2166.84 2343.47 2164.79 2348.97 2161.28 2353.96 2156.35 2356.16 2153.3 2358.09 2149.77 2359.67 2145.82 2361.01 2141.4 2361.99 2136.5 2362.73 2131.06 2363.22 2125.17 2363.35 2118.86 2363.22 2112.9 2362.72 2107.41 2361.98 2102.28 2360.87 2097.61 2359.52 2093.24 2357.86 2089.4 2355.85 2085.88 2353.65 2082.85 2348.53 2077.73 2342.9 2074.1 2336.69 2071.93ZM2501.97 2070.15 2495.67 2070.8 2489.94 2072.62 2484.82 2075.57 2480.29 2079.74 2476.53 2085 2473.86 2091.07 2472.28 2098.09 2471.85 2105.01 2531.82 2105.01 2531.17 2097.67 2529.4 2090.46 2526.67 2084.33 2522.86 2079.25 2518.33 2075.27 2513.32 2072.49 2507.89 2070.74ZM3023.97 2070.15 3017.67 2070.8 3011.94 2072.62 3006.82 2075.57 3002.29 2079.74 2998.53 2085 2995.86 2091.07 2994.28 2098.09 2993.85 2105.01 3053.82 2105.01 3053.17 2097.67 3051.4 2090.46 3048.67 2084.33 3044.86 2079.25 3040.33 2075.27 3035.32 2072.49 3029.89 2070.74ZM2329.73 2069.19C2329.8 2069.18 2329.87 2069.18 2329.95 2069.19L2337.02 2069.95C2337.09 2069.96 2337.17 2069.98 2337.24 2070L2343.68 2072.25C2343.75 2072.28 2343.82 2072.31 2343.89 2072.35L2349.7 2076.1C2349.76 2076.14 2349.81 2076.19 2349.86 2076.24L2355.11 2081.49C2355.15 2081.53 2355.19 2081.57 2355.22 2081.61L2357.59 2084.89 2359.7 2088.61 2361.43 2092.65 2362.82 2097.15 2363.96 2101.99 2364.72 2107.23 2365.22 2112.86 2365.35 2118.9 2365.22 2125.34 2364.71 2131.33 2363.95 2136.89 2362.93 2141.99 2361.52 2146.57 2359.85 2150.74 2357.78 2154.47 2355.53 2157.59C2355.5 2157.64 2355.46 2157.68 2355.42 2157.72L2350.3 2162.78C2350.25 2162.83 2350.19 2162.88 2350.13 2162.91L2344.45 2166.54C2344.38 2166.58 2344.3 2166.62 2344.22 2166.64L2337.85 2168.77C2337.78 2168.79 2337.71 2168.81 2337.64 2168.81L2330.7 2169.56C2330.65 2169.57 2330.6 2169.57 2330.54 2169.57L2326.73 2169.37 2323.08 2168.72 2319.52 2167.74 2316.16 2166.31 2312.95 2164.44 2309.92 2162.25 2306.98 2159.56 2304.22 2156.53 2301.72 2153.06 2299.55 2149.15 2297.71 2144.81 2296.18 2140.03 2295.04 2134.84 2294.22 2129.28 2293.72 2123.22 2293.53 2116.76 2294.18 2105.81 2296.05 2096.38C2296.06 2096.32 2296.08 2096.26 2296.1 2096.21L2299.23 2088.21C2299.25 2088.14 2299.29 2088.07 2299.33 2088.01L2303.76 2081.39C2303.8 2081.33 2303.85 2081.27 2303.9 2081.23L2309.21 2076.1C2309.27 2076.05 2309.32 2076.01 2309.38 2075.97L2315.38 2072.28C2315.45 2072.24 2315.52 2072.21 2315.6 2072.18L2322.28 2069.99C2322.35 2069.97 2322.42 2069.96 2322.49 2069.95ZM3024.07 2068.15 3030.19 2068.76C3030.27 2068.77 3030.33 2068.78 3030.4 2068.81L3036.03 2070.62C3036.09 2070.64 3036.15 2070.66 3036.21 2070.7L3041.39 2073.57C3041.46 2073.61 3041.51 2073.65 3041.57 2073.69L3046.26 2077.82C3046.31 2077.86 3046.35 2077.92 3046.4 2077.97L3050.33 2083.22C3050.38 2083.28 3050.42 2083.34 3050.45 2083.41L3053.26 2089.73C3053.28 2089.78 3053.3 2089.84 3053.32 2089.89L3055.13 2097.27C3055.14 2097.32 3055.15 2097.37 3055.15 2097.42L3055.9 2105.92C3055.93 2106.2 3055.83 2106.48 3055.65 2106.68 3055.46 2106.89 3055.19 2107.01 3054.91 2107.01L2992.78 2107.01C2992.51 2107.01 2992.24 2106.89 2992.05 2106.69 2991.87 2106.49 2991.77 2106.22 2991.78 2105.95L2992.28 2097.88C2992.29 2097.83 2992.3 2097.78 2992.31 2097.72L2993.93 2090.54C2993.95 2090.47 2993.97 2090.41 2993.99 2090.35L2996.74 2084.1C2996.77 2084.04 2996.8 2083.98 2996.84 2083.93L3000.72 2078.49C3000.76 2078.43 3000.8 2078.38 3000.86 2078.33L3005.54 2074.02C3005.6 2073.97 3005.66 2073.93 3005.72 2073.89L3011.03 2070.83C3011.1 2070.79 3011.16 2070.76 3011.23 2070.74L3017.17 2068.87C3017.23 2068.85 3017.3 2068.83 3017.37 2068.83L3023.86 2068.15C3023.93 2068.14 3024 2068.14 3024.07 2068.15ZM2502.07 2068.15 2508.19 2068.76C2508.27 2068.77 2508.33 2068.78 2508.4 2068.81L2514.03 2070.62C2514.09 2070.64 2514.15 2070.66 2514.21 2070.7L2519.39 2073.57C2519.46 2073.61 2519.51 2073.65 2519.57 2073.69L2524.26 2077.82C2524.31 2077.86 2524.35 2077.92 2524.4 2077.97L2528.33 2083.22C2528.38 2083.28 2528.42 2083.34 2528.45 2083.41L2531.26 2089.73C2531.28 2089.78 2531.3 2089.84 2531.32 2089.89L2533.13 2097.27C2533.14 2097.32 2533.15 2097.37 2533.15 2097.42L2533.9 2105.92C2533.93 2106.2 2533.83 2106.48 2533.65 2106.68 2533.46 2106.89 2533.19 2107.01 2532.91 2107.01L2470.78 2107.01C2470.51 2107.01 2470.24 2106.89 2470.05 2106.69 2469.86 2106.49 2469.77 2106.22 2469.78 2105.95L2470.28 2097.88C2470.29 2097.83 2470.3 2097.78 2470.31 2097.72L2471.93 2090.54C2471.95 2090.47 2471.97 2090.41 2471.99 2090.35L2474.74 2084.1C2474.77 2084.04 2474.8 2083.98 2474.84 2083.93L2478.72 2078.49C2478.76 2078.43 2478.8 2078.38 2478.86 2078.33L2483.54 2074.02C2483.6 2073.97 2483.66 2073.93 2483.72 2073.89L2489.03 2070.83C2489.1 2070.79 2489.16 2070.76 2489.23 2070.74L2495.17 2068.87C2495.23 2068.85 2495.3 2068.83 2495.37 2068.83L2501.86 2068.15C2501.93 2068.14 2502 2068.14 2502.07 2068.15ZM2070.87 2041.89 2124.04 2116.5C2124.28 2116.84 2124.28 2117.31 2124.04 2117.65L2068.52 2197.01 2114.75 2197.01 2146.7 2148.83C2146.89 2148.55 2147.2 2148.38 2147.54 2148.38 2147.87 2148.38 2148.18 2148.55 2148.37 2148.83L2180.01 2197.01 2228.61 2197.01 2171.53 2115.9C2171.28 2115.55 2171.28 2115.08 2171.53 2114.74L2223.71 2041.95 2177.31 2041.95 2148.36 2084.69C2148.17 2084.97 2147.86 2085.14 2147.52 2085.13 2147.19 2085.13 2146.87 2084.96 2146.69 2084.67L2119.17 2041.94ZM2068.93 2039.89 2119.72 2039.95C2120.06 2039.95 2120.38 2040.12 2120.56 2040.4L2147.55 2082.32 2175.95 2040.38C2176.14 2040.11 2176.45 2039.95 2176.78 2039.95L2225.66 2039.95C2226.03 2039.95 2226.38 2040.15 2226.55 2040.49 2226.72 2040.82 2226.69 2041.22 2226.47 2041.53L2173.57 2115.33 2231.35 2197.43C2231.57 2197.74 2231.59 2198.14 2231.42 2198.47 2231.25 2198.8 2230.91 2199.01 2230.53 2199.01L2179.47 2199.01C2179.13 2199.01 2178.82 2198.84 2178.63 2198.56L2147.53 2151.2 2116.12 2198.56C2115.93 2198.84 2115.62 2199.01 2115.28 2199.01L2066.6 2199.01C2066.22 2199.01 2065.88 2198.8 2065.71 2198.47 2065.54 2198.14 2065.56 2197.74 2065.78 2197.43L2122 2117.08 2068.11 2041.47C2067.89 2041.16 2067.86 2040.76 2068.04 2040.43 2068.21 2040.09 2068.55 2039.89 2068.93 2039.89ZM3187.82 2038.33 3179.75 2038.57 3172.12 2039.25 3165.14 2040.29 3158.66 2041.83 3152.81 2043.74 3147.47 2046.06 3142.7 2048.81 3138.47 2051.98 3134.79 2055.48 3131.54 2059.2 3128.85 2063.11 3126.64 2067.2 3124.87 2071.46 3123.65 2075.98 3122.91 2080.62 3122.66 2085.51 3122.96 2090.9 3123.81 2095.98 3125.19 2100.78 3127.2 2105.23 3129.75 2109.38 3132.85 2113.23 3136.57 2116.84 3140.85 2120.08 3144.71 2122.35 3149.71 2124.7 3155.92 2127.13 3163.25 2129.67 3171.79 2132.17 3181.46 2134.79 3192.32 2137.47 3204.35 2140.23 3209.35 2141.56 3213.4 2142.92 3216.4 2144.36C3216.46 2144.38 3216.51 2144.41 3216.55 2144.45L3218.55 2145.88C3218.66 2145.96 3218.74 2146.05 3218.81 2146.15L3221.06 2149.65C3221.13 2149.77 3221.18 2149.89 3221.21 2150.03L3221.96 2154.4C3221.97 2154.49 3221.97 2154.58 3221.97 2154.66L3221.65 2157.98C3221.65 2158.06 3221.63 2158.14 3221.6 2158.22L3220.54 2161.16C3220.51 2161.23 3220.47 2161.3 3220.43 2161.37L3218.74 2163.93C3218.7 2164 3218.65 2164.06 3218.59 2164.12L3216.15 2166.37C3216.09 2166.42 3216.03 2166.47 3215.96 2166.5L3211.4 2169.07C3211.34 2169.1 3211.29 2169.12 3211.23 2169.14L3205.66 2171.02C3205.62 2171.03 3205.57 2171.05 3205.51 2171.06L3198.83 2172.19 3191.17 2172.57 3184.09 2172.18 3178.03 2170.99C3177.97 2170.98 3177.92 2170.96 3177.87 2170.94L3172.56 2168.94C3172.5 2168.92 3172.44 2168.89 3172.39 2168.86L3167.89 2166.11C3167.83 2166.07 3167.77 2166.03 3167.72 2165.98L3164.03 2162.48C3163.99 2162.44 3163.95 2162.39 3163.91 2162.34L3160.85 2158.09C3160.81 2158.04 3160.78 2157.99 3160.75 2157.93L3158.44 2152.99C3158.42 2152.95 3158.4 2152.9 3158.39 2152.85L3156.94 2147.94 3117.19 2154.01 3118.46 2158.26 3120.48 2163.36 3122.95 2168.11 3125.7 2172.65 3128.89 2176.83 3132.52 2180.77 3136.51 2184.4 3140.94 2187.72 3145.73 2190.74 3150.96 2193.33 3156.63 2195.55 3162.68 2197.34 3169.17 2198.77 3176.12 2199.76 3183.43 2200.38 3191.19 2200.57 3199.69 2200.32 3207.69 2199.58 3215.05 2198.41 3221.96 2196.75 3228.24 2194.6 3234.03 2191.96 3239.24 2188.9 3243.97 2185.34 3248.16 2181.41 3251.72 2177.36 3254.78 2173.09 3257.24 2168.62 3259.2 2163.99 3260.55 2159.21 3261.41 2154.21 3261.66 2148.98 3261.48 2144.27 3260.87 2139.8 3259.9 2135.6 3258.51 2131.7 3256.75 2128.11 3254.57 2124.71 3252.04 2121.61 3249.06 2118.81 3245.51 2116.17 3241.39 2113.65 3236.57 2111.18 3231.13 2108.82 3225.04 2106.59 3218.39 2104.47 3211.05 2102.42 3203.06 2100.48 3195.17 2098.67 3188.15 2096.91 3182.01 2095.28 3176.66 2093.77 3172.25 2092.32 3168.64 2090.99 3165.78 2089.75 3163.96 2088.68C3163.91 2088.65 3163.85 2088.61 3163.8 2088.56L3161.99 2086.94C3161.94 2086.89 3161.89 2086.84 3161.85 2086.78L3160.54 2084.97C3160.49 2084.91 3160.45 2084.84 3160.42 2084.77L3159.61 2082.83C3159.57 2082.74 3159.55 2082.65 3159.54 2082.56L3159.29 2080.37C3159.28 2080.29 3159.28 2080.21 3159.29 2080.13L3159.6 2077.69C3159.61 2077.61 3159.63 2077.53 3159.66 2077.46L3160.54 2075.21C3160.57 2075.12 3160.62 2075.04 3160.67 2074.97L3162.17 2072.97C3162.21 2072.91 3162.27 2072.86 3162.32 2072.81L3164.39 2071.06C3164.45 2071 3164.52 2070.96 3164.6 2070.92L3168.72 2068.92C3168.78 2068.89 3168.84 2068.87 3168.9 2068.85L3174.34 2067.39 3180.87 2066.57 3188.58 2066.26 3194.83 2066.58 3200.27 2067.52C3200.31 2067.53 3200.36 2067.54 3200.4 2067.56L3205.03 2069.06C3205.09 2069.08 3205.15 2069.1 3205.2 2069.13L3209.08 2071.26C3209.13 2071.29 3209.18 2071.32 3209.23 2071.36L3212.48 2074.05C3212.53 2074.09 3212.58 2074.13 3212.62 2074.18L3215.3 2077.43C3215.34 2077.48 3215.38 2077.54 3215.41 2077.59L3217.47 2081.41C3217.5 2081.45 3217.52 2081.5 3217.54 2081.54L3218.81 2085.06 3255.99 2078.18 3252.87 2069.74 3248.21 2061.45 3242.33 2054.47 3235.21 2048.71 3231.18 2046.36 3226.58 2044.27 3221.4 2042.47 3215.79 2040.99 3209.6 2039.88 3202.84 2039.07 3195.63 2038.57ZM2850.82 2038.33 2842.75 2038.57 2835.12 2039.25 2828.14 2040.29 2821.66 2041.83 2815.81 2043.74 2810.47 2046.06 2805.7 2048.81 2801.47 2051.98 2797.79 2055.48 2794.54 2059.2 2791.85 2063.11 2789.64 2067.2 2787.87 2071.46 2786.65 2075.98 2785.91 2080.62 2785.66 2085.51 2785.96 2090.9 2786.81 2095.98 2788.19 2100.78 2790.2 2105.23 2792.75 2109.38 2795.85 2113.23 2799.57 2116.84 2803.85 2120.08 2807.71 2122.35 2812.71 2124.7 2818.92 2127.13 2826.25 2129.67 2834.79 2132.17 2844.46 2134.79 2855.32 2137.47 2867.35 2140.23 2872.35 2141.56 2876.4 2142.92 2879.4 2144.36C2879.46 2144.38 2879.51 2144.41 2879.55 2144.45L2881.55 2145.88C2881.66 2145.96 2881.74 2146.05 2881.81 2146.15L2884.06 2149.65C2884.13 2149.77 2884.18 2149.89 2884.21 2150.03L2884.96 2154.4C2884.97 2154.49 2884.97 2154.58 2884.97 2154.66L2884.65 2157.98C2884.65 2158.06 2884.63 2158.14 2884.6 2158.22L2883.54 2161.16C2883.51 2161.23 2883.47 2161.3 2883.43 2161.37L2881.74 2163.93C2881.7 2164 2881.65 2164.06 2881.59 2164.12L2879.15 2166.37C2879.09 2166.42 2879.03 2166.47 2878.96 2166.5L2874.4 2169.07C2874.34 2169.1 2874.29 2169.12 2874.23 2169.14L2868.66 2171.02C2868.62 2171.03 2868.57 2171.05 2868.51 2171.06L2861.83 2172.19 2854.17 2172.57 2847.09 2172.18 2841.03 2170.99C2840.97 2170.98 2840.92 2170.96 2840.87 2170.94L2835.56 2168.94C2835.5 2168.92 2835.44 2168.89 2835.39 2168.86L2830.89 2166.11C2830.83 2166.07 2830.77 2166.03 2830.72 2165.98L2827.03 2162.48C2826.99 2162.44 2826.95 2162.39 2826.91 2162.34L2823.85 2158.09C2823.81 2158.04 2823.78 2157.99 2823.75 2157.93L2821.44 2152.99C2821.42 2152.95 2821.4 2152.9 2821.39 2152.85L2819.94 2147.94 2780.19 2154.01 2781.46 2158.26 2783.48 2163.36 2785.95 2168.11 2788.7 2172.65 2791.89 2176.83 2795.52 2180.77 2799.51 2184.4 2803.94 2187.72 2808.73 2190.74 2813.96 2193.33 2819.63 2195.55 2825.68 2197.34 2832.17 2198.77 2839.12 2199.76 2846.43 2200.38 2854.19 2200.57 2862.69 2200.32 2870.69 2199.58 2878.05 2198.41 2884.96 2196.75 2891.24 2194.6 2897.03 2191.96 2902.24 2188.9 2906.97 2185.34 2911.16 2181.41 2914.72 2177.36 2917.78 2173.09 2920.24 2168.62 2922.2 2163.99 2923.55 2159.21 2924.41 2154.21 2924.66 2148.98 2924.48 2144.27 2923.87 2139.8 2922.9 2135.6 2921.51 2131.7 2919.75 2128.11 2917.57 2124.71 2915.04 2121.61 2912.06 2118.81 2908.51 2116.17 2904.39 2113.65 2899.57 2111.18 2894.13 2108.82 2888.04 2106.59 2881.39 2104.47 2874.05 2102.42 2866.06 2100.48 2858.17 2098.67 2851.15 2096.91 2845.01 2095.28 2839.66 2093.77 2835.25 2092.32 2831.64 2090.99 2828.78 2089.75 2826.96 2088.68C2826.91 2088.65 2826.85 2088.61 2826.8 2088.56L2824.99 2086.94C2824.94 2086.89 2824.89 2086.84 2824.85 2086.78L2823.54 2084.97C2823.49 2084.91 2823.45 2084.84 2823.42 2084.77L2822.61 2082.83C2822.57 2082.74 2822.55 2082.65 2822.54 2082.56L2822.29 2080.37C2822.28 2080.29 2822.28 2080.21 2822.29 2080.13L2822.6 2077.69C2822.61 2077.61 2822.63 2077.53 2822.66 2077.46L2823.54 2075.21C2823.57 2075.12 2823.62 2075.04 2823.67 2074.97L2825.17 2072.97C2825.22 2072.91 2825.27 2072.86 2825.32 2072.81L2827.39 2071.06C2827.45 2071 2827.52 2070.96 2827.6 2070.92L2831.72 2068.92C2831.78 2068.89 2831.84 2068.87 2831.9 2068.85L2837.34 2067.39 2843.87 2066.57 2851.58 2066.26 2857.83 2066.58 2863.27 2067.52C2863.31 2067.53 2863.36 2067.54 2863.4 2067.56L2868.03 2069.06C2868.09 2069.08 2868.15 2069.1 2868.2 2069.13L2872.08 2071.26C2872.13 2071.29 2872.18 2071.32 2872.23 2071.36L2875.48 2074.05C2875.53 2074.09 2875.58 2074.13 2875.62 2074.18L2878.3 2077.43C2878.34 2077.48 2878.38 2077.54 2878.41 2077.59L2880.47 2081.41C2880.5 2081.45 2880.52 2081.5 2880.54 2081.54L2881.81 2085.06 2918.99 2078.18 2915.87 2069.74 2911.21 2061.45 2905.33 2054.47 2898.21 2048.71 2894.18 2046.36 2889.58 2044.27 2884.4 2042.47 2878.79 2040.99 2872.6 2039.88 2865.84 2039.07 2858.63 2038.57ZM3021.51 2038.33 3013.98 2038.75 3006.78 2039.73 2999.94 2041.45 2993.41 2043.84 2987.2 2046.85 2981.34 2050.6 2975.8 2055.03 2970.62 2060.15 2965.87 2065.87 2961.8 2072.09 2958.34 2078.81 2955.49 2086.16 2953.26 2093.95 2951.65 2102.3 2950.72 2111.17 2950.41 2120.6 2950.65 2128.54 2951.39 2136.16 2952.57 2143.34 2954.23 2150.25 2956.39 2156.74 2959.04 2162.91 2962.18 2168.71 2965.74 2174.18 2970.9 2180.33 2976.73 2185.69 2983.18 2190.24 2990.32 2193.95 2998.08 2196.85 3006.6 2198.89 3015.7 2200.13 3025.54 2200.57 3037.84 2199.84 3049.08 2197.67 3059.17 2193.97 3068.15 2188.87 3076.08 2182.35 3082.85 2174.48 3088.52 2165.23 3092.55 2155.78 3053.21 2149.14 3051.55 2154.01 3049.24 2158.7C3049.22 2158.75 3049.19 2158.79 3049.16 2158.84L3046.41 2162.71C3046.38 2162.76 3046.34 2162.81 3046.3 2162.85L3043.17 2165.91C3043.12 2165.95 3043.07 2165.99 3043.02 2166.03L3039.52 2168.34C3039.47 2168.37 3039.42 2168.4 3039.36 2168.43L3035.43 2170.11C3035.37 2170.14 3035.32 2170.16 3035.26 2170.17L3031.01 2171.17C3030.96 2171.18 3030.9 2171.19 3030.85 2171.19L3026.16 2171.51C3026.11 2171.51 3026.06 2171.51 3026 2171.5L3019.13 2170.88C3019.06 2170.87 3018.99 2170.86 3018.93 2170.84L3012.61 2168.9C3012.55 2168.88 3012.48 2168.85 3012.42 2168.82L3006.73 2165.63C3006.67 2165.6 3006.61 2165.56 3006.56 2165.51L3001.44 2161.01C3001.38 2160.96 3001.34 2160.91 3001.29 2160.86L2997.04 2155.17C2997 2155.11 2996.97 2155.05 2996.94 2154.99L2993.88 2148.36C2993.85 2148.31 2993.83 2148.25 2993.81 2148.19L2991.88 2140.44C2991.86 2140.39 2991.85 2140.34 2991.85 2140.29L2991.04 2131.54C2991.01 2131.26 2991.1 2130.98 2991.29 2130.77 2991.48 2130.56 2991.75 2130.45 2992.03 2130.45L3095.21 2130.45 3095.1 2119.95 3094.36 2109.27 3092.93 2099.29 3090.83 2090.13 3088.12 2081.73 3084.73 2074.14 3080.74 2067.3 3076.07 2061.21 3070.84 2055.85 3065.18 2051.22 3059.1 2047.28 3052.52 2044.08 3045.42 2041.6 3037.96 2039.81 3029.98 2038.76ZM2499.51 2038.33 2491.98 2038.75 2484.78 2039.73 2477.94 2041.45 2471.41 2043.84 2465.2 2046.85 2459.34 2050.6 2453.8 2055.03 2448.62 2060.15 2443.87 2065.87 2439.8 2072.09 2436.34 2078.81 2433.49 2086.16 2431.26 2093.95 2429.65 2102.3 2428.72 2111.17 2428.41 2120.6 2428.65 2128.54 2429.39 2136.16 2430.57 2143.34 2432.23 2150.25 2434.39 2156.74 2437.04 2162.91 2440.18 2168.71 2443.74 2174.18 2448.9 2180.33 2454.73 2185.69 2461.18 2190.24 2468.32 2193.95 2476.08 2196.85 2484.6 2198.89 2493.7 2200.13 2503.54 2200.57 2515.84 2199.84 2527.08 2197.67 2537.17 2193.97 2546.15 2188.87 2554.08 2182.35 2560.85 2174.48 2566.52 2165.23 2570.55 2155.78 2531.21 2149.14 2529.55 2154.01 2527.24 2158.7C2527.22 2158.75 2527.19 2158.79 2527.16 2158.84L2524.41 2162.71C2524.38 2162.76 2524.34 2162.81 2524.3 2162.85L2521.17 2165.91C2521.12 2165.95 2521.07 2165.99 2521.02 2166.03L2517.52 2168.34C2517.47 2168.37 2517.42 2168.4 2517.36 2168.43L2513.43 2170.11C2513.37 2170.14 2513.32 2170.16 2513.26 2170.17L2509.01 2171.17C2508.96 2171.18 2508.9 2171.19 2508.85 2171.19L2504.16 2171.51C2504.11 2171.51 2504.06 2171.51 2504 2171.5L2497.13 2170.88C2497.06 2170.87 2496.99 2170.86 2496.93 2170.84L2490.61 2168.9C2490.55 2168.88 2490.48 2168.85 2490.42 2168.82L2484.73 2165.63C2484.67 2165.6 2484.61 2165.56 2484.56 2165.51L2479.44 2161.01C2479.38 2160.96 2479.34 2160.91 2479.29 2160.86L2475.04 2155.17C2475 2155.11 2474.97 2155.05 2474.94 2154.99L2471.88 2148.36C2471.85 2148.31 2471.83 2148.25 2471.81 2148.19L2469.88 2140.44C2469.86 2140.39 2469.85 2140.34 2469.85 2140.29L2469.04 2131.54C2469.01 2131.26 2469.1 2130.98 2469.29 2130.77 2469.48 2130.56 2469.75 2130.45 2470.03 2130.45L2573.21 2130.45 2573.1 2119.95 2572.36 2109.27 2570.93 2099.29 2568.83 2090.13 2566.12 2081.73 2562.73 2074.14 2558.74 2067.3 2554.07 2061.21 2548.84 2055.85 2543.18 2051.22 2537.1 2047.28 2530.52 2044.08 2523.42 2041.6 2515.96 2039.81 2507.98 2038.76ZM2698.7 2038.33 2691.2 2038.81 2684 2040.03 2677.13 2042.05 2670.6 2044.93 2664.4 2048.55 2658.54 2053.11 2652.98 2058.41 2647.67 2064.66C2647.4 2064.97 2646.96 2065.09 2646.56 2064.95 2646.17 2064.8 2645.91 2064.43 2645.91 2064.01L2645.91 2041.95 2609.28 2041.95 2609.28 2197.01 2648.85 2197.01 2648.85 2126.87 2648.91 2120.55 2649.03 2114.71 2649.29 2109.37 2649.66 2104.59 2650.11 2100.23 2650.68 2096.51 2651.32 2093.18 2652.11 2090.37 2654.05 2085.75C2654.07 2085.7 2654.09 2085.65 2654.12 2085.61L2656.68 2081.42C2656.71 2081.37 2656.75 2081.32 2656.79 2081.28L2660.1 2077.59C2660.14 2077.55 2660.18 2077.51 2660.22 2077.48L2664.15 2074.29C2664.19 2074.26 2664.24 2074.23 2664.28 2074.2L2668.72 2071.64C2668.76 2071.62 2668.8 2071.6 2668.85 2071.58L2673.54 2069.7C2673.59 2069.68 2673.64 2069.67 2673.7 2069.65L2678.84 2068.57 2684.22 2068.2 2688.28 2068.45C2688.33 2068.45 2688.38 2068.46 2688.43 2068.47L2692.31 2069.32 2695.81 2070.57C2695.86 2070.59 2695.92 2070.61 2695.97 2070.64L2699.1 2072.46C2699.14 2072.48 2699.18 2072.51 2699.22 2072.54L2702.03 2074.79C2702.08 2074.83 2702.12 2074.87 2702.16 2074.92L2704.54 2077.67C2704.57 2077.7 2704.6 2077.74 2704.63 2077.79L2706.57 2080.85C2706.59 2080.89 2706.62 2080.94 2706.64 2080.99L2708.18 2084.66 2708.82 2086.87 2709.4 2089.63 2709.84 2092.97 2710.22 2096.81 2710.53 2101.22 2710.72 2106.23 2710.85 2111.75 2710.91 2117.82 2710.91 2197.01 2750.47 2197.01 2750.47 2100.4 2750.35 2091.88 2749.91 2084.43 2749.17 2078 2748.2 2072.72 2746.85 2068.06 2745.15 2063.66 2742.96 2059.51 2740.28 2055.61 2737.08 2051.97 2733.31 2048.79 2728.72 2045.84 2723.43 2043.26 2717.73 2041.1 2711.7 2039.62 2705.35 2038.69ZM2341.15 2038.33 2333.66 2038.8 2326.47 2040.14 2319.6 2042.41 2313.08 2045.59 2307.11 2049.53 2301.76 2053.94 2297.03 2058.97 2292.97 2064.59C2292.71 2064.94 2292.26 2065.09 2291.85 2064.96 2291.44 2064.83 2291.16 2064.44 2291.16 2064.01L2291.16 2041.95 2254.41 2041.95 2254.41 2256.82 2293.97 2256.82 2293.97 2178.63C2293.97 2178.23 2294.22 2177.86 2294.59 2177.71 2294.97 2177.55 2295.4 2177.64 2295.69 2177.93L2301.38 2183.75 2306.93 2188.57 2312.34 2192.45 2317.61 2195.46 2322.93 2197.73 2328.56 2199.33 2334.52 2200.26 2340.8 2200.57 2347.37 2200.27 2353.71 2199.23 2359.85 2197.58 2365.68 2195.25 2371.28 2192.25 2376.63 2188.56 2381.75 2184.19 2386.62 2179.14 2391.06 2173.47 2394.95 2167.32 2398.22 2160.6 2400.88 2153.31 2402.99 2145.46 2404.47 2137.04 2405.35 2128.1 2405.66 2118.6 2405.35 2109.36 2404.49 2100.69 2403 2092.51 2400.97 2084.86 2398.32 2077.76 2395.06 2071.16 2391.25 2065.06 2386.88 2059.52 2382.01 2054.58 2376.97 2050.27 2371.63 2046.64 2366.04 2043.69 2360.21 2041.35 2354.13 2039.68 2347.73 2038.69ZM2698.57 2036.34 2705.46 2036.7 2711.99 2037.64 2718.21 2039.16 2724.14 2041.38 2729.6 2044.05 2734.38 2047.1 2738.43 2050.49C2738.46 2050.52 2738.5 2050.56 2738.53 2050.6L2741.78 2054.28 2744.61 2058.38 2746.92 2062.73 2748.71 2067.33 2750.12 2072.17 2751.14 2077.64 2751.9 2084.21 2752.34 2091.76 2752.47 2100.37 2752.47 2198.01C2752.47 2198.56 2752.02 2199.01 2751.47 2199.01L2709.91 2199.01C2709.36 2199.01 2708.91 2198.56 2708.91 2198.01L2708.91 2117.82 2708.85 2111.77 2708.72 2106.28 2708.53 2101.29 2708.22 2096.95 2707.85 2093.17 2707.42 2089.89 2706.87 2087.27 2706.26 2085.23 2704.83 2081.85 2702.98 2078.92 2700.71 2076.29 2698.03 2074.15 2695.05 2072.42 2691.63 2071.2 2688.08 2070.44 2684.1 2070.19 2678.98 2070.57 2674.2 2071.59 2669.66 2073.41 2665.35 2075.9 2661.54 2078.98 2658.34 2082.54 2655.86 2086.59 2653.96 2091.14 2653.25 2093.71 2652.64 2096.88 2652.08 2100.53 2651.65 2104.8 2651.28 2109.52 2651.03 2114.8 2650.91 2120.59 2650.85 2126.89 2650.85 2198.01C2650.85 2198.56 2650.4 2199.01 2649.85 2199.01L2608.28 2199.01C2607.73 2199.01 2607.28 2198.56 2607.28 2198.01L2607.28 2040.95C2607.28 2040.39 2607.73 2039.95 2608.28 2039.95L2646.91 2039.95C2647.46 2039.95 2647.91 2040.39 2647.91 2040.95L2647.91 2061.29 2651.46 2057.11 2657.15 2051.66 2663.17 2046.97 2669.59 2043.21 2676.31 2040.22 2683.44 2038.11 2690.86 2036.83ZM2341.02 2036.34 2347.84 2036.7 2354.43 2037.71 2360.73 2039.42 2366.78 2041.83 2372.56 2044.87 2378.09 2048.62 2383.31 2053.06 2388.31 2058.12 2392.82 2063.83 2396.76 2070.1 2400.12 2076.88 2402.84 2084.16 2404.94 2092 2406.45 2100.33 2407.34 2109.16 2407.66 2118.54 2407.34 2128.17 2406.47 2137.23 2404.96 2145.81 2402.81 2153.83 2400.1 2161.29 2396.74 2168.19 2392.75 2174.54 2388.2 2180.37 2383.19 2185.58 2377.93 2190.08 2372.41 2193.89 2366.63 2197.01 2360.59 2199.44 2354.23 2201.16 2347.7 2202.24 2340.89 2202.57 2334.42 2202.26 2328.25 2201.31 2322.39 2199.66 2316.83 2197.3 2311.35 2194.19 2305.76 2190.2 2300.07 2185.26 2295.97 2181.08 2295.97 2257.82C2295.97 2258.37 2295.52 2258.82 2294.97 2258.82L2253.41 2258.82C2252.86 2258.82 2252.41 2258.37 2252.41 2257.82L2252.41 2040.95C2252.41 2040.39 2252.86 2039.95 2253.41 2039.95L2292.16 2039.95C2292.71 2039.95 2293.16 2040.39 2293.16 2040.95L2293.16 2060.92 2295.41 2057.8 2300.3 2052.57 2305.83 2047.99 2311.98 2043.92 2318.72 2040.61 2325.84 2038.25 2333.29 2036.84ZM3021.4 2036.34 3030.08 2036.76 3038.23 2037.83 3045.89 2039.66 3053.17 2042.19 3059.97 2045.48 3066.26 2049.54 3072.1 2054.29 3077.5 2059.81 3082.33 2066.09 3086.46 2073.13 3089.95 2080.91 3092.73 2089.51 3094.88 2098.85 3096.34 2108.99 3097.09 2119.81 3097.22 2131.43C3097.22 2131.7 3097.12 2131.96 3096.93 2132.15 3096.74 2132.34 3096.49 2132.45 3096.22 2132.45L2993.13 2132.45 2993.83 2140.03 2995.73 2147.61 2998.71 2154.06 3002.83 2159.58 3007.8 2163.94 3013.3 2167.02 3019.41 2168.9 3026.11 2169.5 3030.63 2169.2 3034.72 2168.24 3038.49 2166.62 3041.84 2164.41 3044.83 2161.48 3047.48 2157.74 3049.76 2153.13 3051.58 2147.69C3051.74 2147.22 3052.21 2146.94 3052.7 2147.02L3094.14 2154.02C3094.44 2154.07 3094.7 2154.26 3094.85 2154.53 3094.99 2154.8 3095.01 2155.12 3094.89 2155.4L3090.33 2166.09C3090.31 2166.13 3090.29 2166.18 3090.26 2166.22L3084.51 2175.59C3084.48 2175.64 3084.45 2175.68 3084.42 2175.72L3077.54 2183.72C3077.5 2183.77 3077.46 2183.81 3077.42 2183.84L3069.35 2190.47C3069.31 2190.5 3069.26 2190.54 3069.21 2190.56L3060.09 2195.75C3060.04 2195.78 3059.99 2195.8 3059.94 2195.82L3049.69 2199.57C3049.64 2199.59 3049.59 2199.6 3049.54 2199.61L3038.22 2201.8 3025.66 2202.57 3015.61 2202.13 3006.34 2200.87 2997.61 2198.79 2989.62 2195.82 2982.26 2192.02 2975.58 2187.32 2969.54 2181.81 2964.2 2175.46 2960.51 2169.8 2957.28 2163.86 2954.55 2157.53 2952.33 2150.89 2950.62 2143.8 2949.42 2136.48 2948.66 2128.73 2948.41 2120.66 2948.72 2111.1 2949.66 2102.09 2951.3 2093.57 2953.57 2085.61 2956.48 2078.08 2960.02 2071.18 2964.2 2064.77 2969.07 2058.87 2974.39 2053.61 2980.1 2049.04 2986.12 2045.17 2992.53 2042.05 2999.25 2039.57 3006.29 2037.79 3013.71 2036.77ZM2499.4 2036.34 2508.08 2036.76 2516.23 2037.83 2523.89 2039.66 2531.17 2042.19 2537.97 2045.48 2544.26 2049.54 2550.1 2054.29 2555.5 2059.81 2560.33 2066.09 2564.46 2073.13 2567.95 2080.91 2570.73 2089.51 2572.88 2098.85 2574.34 2108.99 2575.09 2119.81 2575.22 2131.43C2575.22 2131.7 2575.12 2131.96 2574.93 2132.15 2574.74 2132.34 2574.49 2132.45 2574.22 2132.45L2471.13 2132.45 2471.83 2140.03 2473.73 2147.61 2476.71 2154.06 2480.83 2159.58 2485.8 2163.94 2491.3 2167.02 2497.41 2168.9 2504.11 2169.5 2508.63 2169.2 2512.72 2168.24 2516.49 2166.62 2519.84 2164.41 2522.83 2161.48 2525.48 2157.74 2527.76 2153.13 2529.58 2147.69C2529.74 2147.22 2530.21 2146.94 2530.7 2147.02L2572.14 2154.02C2572.44 2154.07 2572.7 2154.26 2572.85 2154.53 2572.99 2154.8 2573.01 2155.12 2572.89 2155.4L2568.33 2166.09C2568.31 2166.13 2568.29 2166.18 2568.26 2166.22L2562.51 2175.59C2562.48 2175.64 2562.45 2175.68 2562.42 2175.72L2555.54 2183.72C2555.5 2183.77 2555.46 2183.81 2555.42 2183.84L2547.35 2190.47C2547.31 2190.5 2547.26 2190.54 2547.21 2190.56L2538.09 2195.75C2538.04 2195.78 2537.99 2195.8 2537.94 2195.82L2527.69 2199.57C2527.64 2199.59 2527.59 2199.6 2527.54 2199.61L2516.22 2201.8 2503.66 2202.57 2493.61 2202.13 2484.34 2200.87 2475.61 2198.79 2467.62 2195.82 2460.26 2192.02 2453.58 2187.32 2447.54 2181.81 2442.2 2175.46 2438.51 2169.8 2435.28 2163.86 2432.55 2157.53 2430.33 2150.89 2428.62 2143.8 2427.42 2136.48 2426.66 2128.73 2426.41 2120.66 2426.72 2111.1 2427.66 2102.09 2429.3 2093.57 2431.57 2085.61 2434.48 2078.08 2438.02 2071.18 2442.2 2064.77 2447.07 2058.87 2452.39 2053.61 2458.1 2049.04 2464.12 2045.17 2470.53 2042.05 2477.25 2039.57 2484.29 2037.79 2491.71 2036.77ZM3187.76 2036.34 3195.69 2036.57 3202.98 2037.07 3209.84 2037.89 3216.15 2039.02 3221.91 2040.54 3227.23 2042.37 3232.01 2044.53 3236.29 2047.02C3236.33 2047.04 3236.37 2047.07 3236.41 2047.11L3243.66 2052.98C3243.71 2053.02 3243.76 2053.06 3243.8 2053.11L3249.8 2060.24C3249.84 2060.29 3249.87 2060.34 3249.9 2060.39L3254.65 2068.83C3254.68 2068.88 3254.7 2068.92 3254.72 2068.97L3258.28 2078.6C3258.39 2078.87 3258.36 2079.18 3258.21 2079.44 3258.07 2079.7 3257.82 2079.87 3257.53 2079.93L3218.34 2087.18C3217.86 2087.27 3217.38 2087 3217.22 2086.54L3215.68 2082.29 3213.7 2078.63 3211.13 2075.53 3208.03 2072.96 3204.32 2070.93 3199.85 2069.48 3194.49 2068.56 3188.48 2068.26 3180.95 2068.57 3174.6 2069.37 3169.51 2070.76 3165.58 2072.66 3163.7 2074.26 3162.35 2076.06 3161.57 2078.07 3161.29 2080.26 3161.51 2082.19 3162.22 2083.89 3163.4 2085.52 3165.06 2087.01 3166.79 2088.02 3169.43 2089.15 3172.94 2090.44 3177.28 2091.87 3182.55 2093.36 3188.66 2094.98 3195.65 2096.72 3203.51 2098.53 3211.52 2100.47 3218.93 2102.54 3225.65 2104.68 3231.81 2106.94 3237.37 2109.34 3242.3 2111.87 3246.55 2114.47 3250.25 2117.2 3253.4 2120.15 3256.12 2123.43 3258.44 2127.03 3260.31 2130.82 3261.79 2134.92 3262.82 2139.34 3263.46 2144 3263.66 2148.91 3263.41 2154.3 3262.52 2159.55 3261.12 2164.53 3259.08 2169.4 3256.53 2174.05 3253.35 2178.53 3249.66 2182.73 3245.34 2186.8 3240.45 2190.49 3235.04 2193.68 3229.07 2196.42 3222.61 2198.64 3215.52 2200.35 3208 2201.56 3199.88 2202.32 3191.25 2202.57 3183.38 2202.38 3175.95 2201.75 3168.89 2200.75 3162.26 2199.3 3156.06 2197.47 3150.23 2195.19 3144.84 2192.53 3139.88 2189.42 3135.31 2186 3131.17 2182.25 3127.42 2178.19 3124.11 2173.86 3121.24 2169.15 3118.71 2164.28 3116.6 2159 3114.95 2153.48C3114.87 2153.2 3114.91 2152.9 3115.06 2152.66 3115.22 2152.42 3115.47 2152.25 3115.76 2152.21L3157.51 2145.83C3158 2145.76 3158.48 2146.06 3158.62 2146.54L3160.28 2152.21 3162.52 2157 3165.48 2161.1 3169.02 2164.46 3173.35 2167.1 3178.49 2169.04 3184.48 2170.21 3191.27 2170.57 3198.73 2170.2 3205.1 2169.1 3210.5 2167.28 3214.88 2164.82 3217.14 2162.73 3218.69 2160.37 3219.67 2157.66 3219.96 2154.61 3219.27 2150.56 3217.23 2147.4 3215.46 2146.12 3212.54 2144.72 3208.72 2143.46 3203.84 2142.16 3191.87 2139.42 3180.98 2136.73 3171.27 2134.1 3162.69 2131.59 3155.27 2129.01 3148.98 2126.56 3143.86 2124.16 3139.84 2121.81 3135.37 2118.43 3131.46 2114.66 3128.19 2110.64 3125.49 2106.28 3123.37 2101.61 3121.89 2096.54 3120.98 2091.24 3120.66 2085.63 3120.91 2080.52 3121.67 2075.66 3122.94 2070.93 3124.8 2066.44 3127.09 2062.16 3129.9 2058.07 3133.28 2054.16 3137.09 2050.53 3141.49 2047.21 3146.47 2044.33 3152.01 2041.9 3158.04 2039.93 3164.68 2038.35 3171.82 2037.27 3179.57 2036.57ZM2850.76 2036.34 2858.69 2036.57 2865.98 2037.07 2872.84 2037.89 2879.15 2039.02 2884.91 2040.54 2890.23 2042.37 2895.01 2044.53 2899.29 2047.02C2899.33 2047.04 2899.37 2047.07 2899.41 2047.11L2906.66 2052.98C2906.71 2053.02 2906.76 2053.06 2906.8 2053.11L2912.8 2060.24C2912.84 2060.29 2912.87 2060.34 2912.9 2060.39L2917.65 2068.83C2917.68 2068.88 2917.7 2068.92 2917.72 2068.97L2921.28 2078.6C2921.39 2078.87 2921.36 2079.18 2921.21 2079.44 2921.07 2079.7 2920.82 2079.87 2920.53 2079.93L2881.34 2087.18C2880.86 2087.27 2880.38 2087 2880.22 2086.54L2878.68 2082.29 2876.7 2078.63 2874.14 2075.53 2871.03 2072.96 2867.32 2070.93 2862.85 2069.48 2857.49 2068.56 2851.48 2068.26 2843.95 2068.57 2837.6 2069.37 2832.51 2070.76 2828.58 2072.66 2826.7 2074.26 2825.35 2076.06 2824.57 2078.07 2824.29 2080.26 2824.51 2082.19 2825.22 2083.89 2826.4 2085.52 2828.06 2087.01 2829.79 2088.02 2832.43 2089.15 2835.94 2090.44 2840.28 2091.87 2845.55 2093.36 2851.66 2094.98 2858.65 2096.72 2866.51 2098.53 2874.52 2100.47 2881.93 2102.54 2888.65 2104.68 2894.81 2106.94 2900.37 2109.34 2905.3 2111.87 2909.55 2114.47 2913.25 2117.2 2916.4 2120.15 2919.12 2123.43 2921.44 2127.03 2923.31 2130.82 2924.79 2134.92 2925.82 2139.34 2926.46 2144 2926.66 2148.91 2926.41 2154.3 2925.52 2159.55 2924.12 2164.53 2922.08 2169.4 2919.53 2174.05 2916.35 2178.53 2912.66 2182.73 2908.34 2186.8 2903.45 2190.49 2898.04 2193.68 2892.07 2196.42 2885.61 2198.64 2878.52 2200.35 2871 2201.56 2862.88 2202.32 2854.25 2202.57 2846.38 2202.38 2838.95 2201.75 2831.89 2200.75 2825.26 2199.3 2819.06 2197.47 2813.23 2195.19 2807.84 2192.53 2802.88 2189.42 2798.31 2186 2794.17 2182.25 2790.42 2178.19 2787.11 2173.86 2784.24 2169.15 2781.71 2164.28 2779.6 2159 2777.95 2153.48C2777.87 2153.2 2777.91 2152.9 2778.06 2152.66 2778.22 2152.42 2778.47 2152.25 2778.76 2152.21L2820.51 2145.83C2821 2145.76 2821.48 2146.06 2821.62 2146.54L2823.28 2152.22 2825.52 2157 2828.48 2161.1 2832.02 2164.46 2836.35 2167.1 2841.49 2169.04 2847.47 2170.21 2854.27 2170.57 2861.73 2170.2 2868.1 2169.1 2873.5 2167.28 2877.88 2164.82 2880.14 2162.73 2881.69 2160.37 2882.67 2157.66 2882.96 2154.61 2882.27 2150.56 2880.23 2147.4 2878.46 2146.12 2875.54 2144.72 2871.72 2143.46 2866.84 2142.16 2854.87 2139.42 2843.98 2136.73 2834.27 2134.1 2825.69 2131.59 2818.27 2129.01 2811.98 2126.56 2806.86 2124.16 2802.84 2121.81 2798.37 2118.43 2794.46 2114.66 2791.19 2110.64 2788.49 2106.28 2786.37 2101.61 2784.89 2096.54 2783.98 2091.24 2783.66 2085.63 2783.91 2080.52 2784.67 2075.66 2785.94 2070.93 2787.8 2066.44 2790.09 2062.16 2792.9 2058.07 2796.28 2054.16 2800.09 2050.53 2804.49 2047.21 2809.47 2044.33 2815.01 2041.9 2821.03 2039.93 2827.68 2038.35 2834.82 2037.27 2842.57 2036.57ZM1885.83 1982.11 1885.83 2197.01 2048.85 2197.01 2048.85 2162.51 1928.66 2162.51C1928.11 2162.51 1927.66 2162.06 1927.66 2161.51L1927.66 2102.45C1927.66 2101.89 1928.11 2101.45 1928.66 2101.45L2036.53 2101.45 2036.53 2066.95 1928.66 2066.95C1928.11 2066.95 1927.66 2066.5 1927.66 2065.95L1927.66 2017.82C1927.66 2017.27 1928.11 2016.82 1928.66 2016.82L2044.66 2016.82 2044.66 1982.13ZM1884.83 1980.11 2045.66 1980.13C2046.21 1980.13 2046.66 1980.58 2046.66 1981.13L2046.66 2017.82C2046.66 2018.37 2046.21 2018.82 2045.66 2018.82L1929.66 2018.82 1929.66 2064.95 2037.53 2064.95C2038.09 2064.95 2038.53 2065.39 2038.53 2065.95L2038.53 2102.45C2038.53 2103 2038.09 2103.45 2037.53 2103.45L1929.66 2103.45 1929.66 2160.51 2049.85 2160.51C2050.4 2160.51 2050.85 2160.96 2050.85 2161.51L2050.85 2198.01C2050.85 2198.56 2050.4 2199.01 2049.85 2199.01L1884.83 2199.01C1884.28 2199.01 1883.83 2198.56 1883.83 2198.01L1883.83 1981.11C1883.83 1980.56 1884.28 1980.11 1884.83 1980.11Z" fill="#ED7D31" fill-rule="evenodd"/><path d="M2320.85 2061.19C2310.69 2061.19 2302.26 2065.11 2295.55 2072.95 2288.84 2080.79 2285.49 2092.41 2285.49 2107.79 2285.49 2125.45 2288.99 2138.49 2295.99 2146.93 2303 2155.36 2311.53 2159.58 2321.59 2159.58 2331.25 2159.58 2339.29 2155.7 2345.7 2147.96 2352.11 2140.22 2355.32 2127.52 2355.32 2109.87 2355.32 2093.39 2352.02 2081.16 2345.41 2073.17 2338.8 2065.18 2330.61 2061.19 2320.85 2061.19ZM3014.98 2060.15C3005.9 2060.15 2998.41 2063.46 2992.49 2070.07 2986.57 2076.68 2983.66 2085.65 2983.76 2096.99L3045.9 2096.99C3045.6 2084.96 3042.49 2075.81 3036.58 2069.55 3030.66 2063.29 3023.46 2060.15 3014.98 2060.15ZM2492.98 2060.15C2483.9 2060.15 2476.41 2063.46 2470.49 2070.07 2464.57 2076.68 2461.66 2085.65 2461.76 2096.99L2523.9 2096.99C2523.6 2084.96 2520.49 2075.81 2514.58 2069.55 2508.66 2063.29 2501.46 2060.15 2492.98 2060.15ZM2059.94 2031.9 2110.68 2031.9 2138.5 2075.1 2167.79 2031.9 2216.61 2031.9 2163.35 2106.31 2221.5 2189.02 2170.45 2189.02 2138.5 2140.34 2106.24 2189.02 2057.57 2189.02 2114.23 2108.09ZM3178.8 2028.35C3200.3 2028.35 3216.28 2031.85 3226.73 2038.85 3237.19 2045.85 3244.39 2056.21 3248.33 2069.92L3209.13 2077.17C3207.45 2071.05 3204.27 2066.37 3199.58 2063.11 3194.9 2059.86 3188.22 2058.23 3179.54 2058.23 3168.59 2058.23 3160.75 2059.76 3156.01 2062.82 3152.86 2064.99 3151.28 2067.8 3151.28 2071.25 3151.28 2074.21 3152.66 2076.72 3155.42 2078.8 3159.17 2081.56 3172.12 2085.45 3194.26 2090.48 3216.4 2095.51 3231.86 2101.68 3240.64 2108.98 3249.32 2116.38 3253.66 2126.68 3253.66 2139.9 3253.66 2154.3 3247.64 2166.68 3235.61 2177.03 3223.58 2187.39 3205.77 2192.57 3182.2 2192.57 3160.8 2192.57 3143.86 2188.23 3131.38 2179.55 3118.9 2170.87 3110.74 2159.08 3106.89 2144.19L3148.62 2137.83C3150.39 2145.92 3153.99 2152.06 3159.42 2156.25 3164.84 2160.44 3172.44 2162.54 3182.2 2162.54 3192.95 2162.54 3201.04 2160.56 3206.46 2156.62 3210.11 2153.86 3211.94 2150.16 3211.94 2145.52 3211.94 2142.36 3210.95 2139.75 3208.98 2137.68 3206.91 2135.71 3202.27 2133.88 3195.07 2132.21 3161.54 2124.81 3140.28 2118.05 3131.31 2111.94 3118.88 2103.45 3112.66 2091.67 3112.66 2076.58 3112.66 2062.97 3118.04 2051.52 3128.79 2042.25 3139.54 2032.98 3156.21 2028.35 3178.8 2028.35ZM3012.46 2028.35C3035.84 2028.35 3054.28 2036.06 3067.79 2051.5 3081.31 2066.94 3087.77 2090.58 3087.18 2122.44L2983.02 2122.44C2983.32 2134.77 2986.67 2144.36 2993.08 2151.22 2999.49 2158.07 3007.48 2161.5 3017.05 2161.5 3023.56 2161.5 3029.03 2159.72 3033.47 2156.17 3037.91 2152.62 3041.26 2146.9 3043.53 2139.01L3084.96 2145.96C3079.63 2161.15 3071.22 2172.72 3059.73 2180.66 3048.24 2188.6 3033.86 2192.57 3016.6 2192.57 2989.28 2192.57 2969.06 2183.64 2955.94 2165.79 2945.59 2151.49 2940.41 2133.44 2940.41 2111.64 2940.41 2085.6 2947.22 2065.21 2960.83 2050.46 2974.44 2035.72 2991.65 2028.35 3012.46 2028.35ZM2841.8 2028.35C2863.3 2028.35 2879.28 2031.85 2889.73 2038.85 2900.19 2045.85 2907.39 2056.21 2911.33 2069.92L2872.13 2077.17C2870.45 2071.05 2867.27 2066.37 2862.58 2063.11 2857.9 2059.86 2851.22 2058.23 2842.54 2058.23 2831.59 2058.23 2823.75 2059.76 2819.01 2062.82 2815.86 2064.99 2814.28 2067.8 2814.28 2071.25 2814.28 2074.21 2815.66 2076.72 2818.42 2078.8 2822.17 2081.56 2835.12 2085.45 2857.26 2090.48 2879.4 2095.51 2894.86 2101.68 2903.64 2108.98 2912.32 2116.38 2916.66 2126.68 2916.66 2139.9 2916.66 2154.3 2910.64 2166.68 2898.61 2177.03 2886.58 2187.39 2868.77 2192.57 2845.2 2192.57 2823.8 2192.57 2806.86 2188.23 2794.38 2179.55 2781.9 2170.87 2773.74 2159.08 2769.89 2144.19L2811.62 2137.83C2813.39 2145.92 2816.99 2152.06 2822.42 2156.25 2827.84 2160.44 2835.44 2162.54 2845.2 2162.54 2855.95 2162.54 2864.04 2160.56 2869.46 2156.62 2873.11 2153.86 2874.94 2150.16 2874.94 2145.52 2874.94 2142.36 2873.95 2139.75 2871.98 2137.68 2869.91 2135.71 2865.27 2133.88 2858.07 2132.21 2824.54 2124.81 2803.28 2118.05 2794.31 2111.94 2781.88 2103.45 2775.66 2091.67 2775.66 2076.58 2775.66 2062.97 2781.04 2051.52 2791.79 2042.25 2802.54 2032.98 2819.21 2028.35 2841.8 2028.35ZM2689.64 2028.35C2698.82 2028.35 2707.2 2030 2714.79 2033.3 2722.39 2036.61 2728.13 2040.82 2732.03 2045.95 2735.93 2051.08 2738.64 2056.9 2740.17 2063.41 2741.7 2069.92 2742.46 2079.24 2742.46 2091.37L2742.46 2189.02 2700.89 2189.02 2700.89 2108.83C2700.89 2091.86 2700 2080.89 2698.22 2075.91 2696.45 2070.93 2693.56 2067.06 2689.57 2064.3 2685.57 2061.54 2680.77 2060.15 2675.14 2060.15 2667.94 2060.15 2661.48 2062.13 2655.76 2066.07 2650.04 2070.02 2646.12 2075.25 2644 2081.75 2641.88 2088.26 2640.82 2100.3 2640.82 2117.85L2640.82 2189.02 2599.25 2189.02 2599.25 2031.9 2637.86 2031.9 2637.86 2054.98C2651.57 2037.22 2668.83 2028.35 2689.64 2028.35ZM2490.46 2028.35C2513.84 2028.35 2532.28 2036.06 2545.79 2051.5 2559.31 2066.94 2565.77 2090.58 2565.18 2122.44L2461.02 2122.44C2461.32 2134.77 2464.67 2144.36 2471.08 2151.22 2477.49 2158.07 2485.48 2161.5 2495.05 2161.5 2501.56 2161.5 2507.03 2159.72 2511.47 2156.17 2515.91 2152.62 2519.26 2146.9 2521.53 2139.01L2562.96 2145.96C2557.63 2161.15 2549.22 2172.72 2537.73 2180.66 2526.24 2188.6 2511.86 2192.57 2494.6 2192.57 2467.28 2192.57 2447.06 2183.64 2433.94 2165.79 2423.59 2151.49 2418.41 2133.44 2418.41 2111.64 2418.41 2085.6 2425.22 2065.21 2438.83 2050.46 2452.44 2035.72 2469.65 2028.35 2490.46 2028.35ZM2332.09 2028.35C2350.34 2028.35 2365.82 2035.5 2378.55 2049.8 2391.27 2064.1 2397.63 2084.02 2397.63 2109.57 2397.63 2135.81 2391.22 2156.2 2378.4 2170.75 2365.58 2185.29 2350.04 2192.57 2331.8 2192.57 2323.12 2192.57 2315.25 2190.84 2308.2 2187.39 2301.15 2183.94 2293.72 2178.02 2285.93 2169.64L2285.93 2248.79 2244.36 2248.79 2244.36 2031.9 2283.12 2031.9 2283.12 2054.98C2288.15 2047.09 2294.96 2040.67 2303.54 2035.74 2312.12 2030.81 2321.64 2028.35 2332.09 2028.35ZM1875.84 1972.12 2036.66 1972.12 2036.66 2008.82 1919.63 2008.82 1919.63 2056.9 2028.52 2056.9 2028.52 2093.44 1919.63 2093.44 1919.63 2152.47 2040.8 2152.47 2040.8 2189.02 1875.84 2189.02Z" stroke="#ED7D31" stroke-width="2" stroke-linejoin="round" stroke-miterlimit="10" fill="#FFFFFF" fill-rule="evenodd"/><text fill="#000000" fill-opacity="0" font-family="Arial,Arial_MSFontService,sans-serif" font-size="276.665" x="1875.84" y="2214.21">Expenses</text></g></svg>